<?xml version="1.0" encoding="UTF-8"?>
<svg id="Capa_2" xmlns="http://www.w3.org/2000/svg"
  xmlns:xlink="http://www.w3.org/1999/xlink" viewBox="0 0 67.15 33.63">
  <defs>
    <style>
      .cls-1,
      .cls-2,
      .cls-3,
      .cls-4,
      .cls-5,
      .cls-6,
      .cls-7,
      .cls-8,
      .cls-9 {
        stroke: #000;
      }

      .cls-1,
      .cls-3,
      .cls-4,
      .cls-5,
      .cls-6 {
        stroke-linejoin: round;
      }

      .cls-1,
      .cls-3,
      .cls-4,
      .cls-5,
      .cls-9 {
        stroke-linecap: round;
      }

      .cls-1,
      .cls-6,
      .cls-8 {
        fill: #fff;
      }

      .cls-2 {
        fill: #79edff;
      }

      .cls-2,
      .cls-7,
      .cls-8,
      .cls-9 {
        stroke-miterlimit: 10;
      }

      .cls-3,
      .cls-4 {
        stroke-width: .25px;
      }

      .cls-3,
      .cls-10,
      .cls-9 {
        fill: none;
      }

      .cls-4,
      .cls-7 {
        fill: #ffc1a5;
      }

      .cls-5 {
        fill: #5b2400;
      }

      .cls-11 {
        clip-path: url(#clippath);
      }

      .cls-12 {
        fill: #baff7f;
      }

      .cls-9 {
        stroke-width: .75px;
      }
    </style>
    <clipPath id="clippath">
      <rect class="cls-10" x="12.39" y="2.32" width="42.27" height="22.79" />
    </clipPath>
  </defs>
  <g id="Capa_1-2">
    <g>
      <path class="cls-8" d="M12.27,.5H54.88c.78,0,1.42,.63,1.42,1.42V26.46H10.85V1.92c0-.78,.63-1.42,1.42-1.42Z" />
      <polygon class="cls-1" points="66.65 30.7 .5 30.7 10.85 26.46 56.29 26.46 66.65 30.7" />
      <polygon points="59.97 29.35 7.15 29.35 11.52 27.67 55.6 27.67 59.97 29.35" />
      <rect class="cls-6" x=".5" y="30.7" width="66.15" height="2.43" />
      <g class="cls-11">
        <rect class="cls-12" x="11.73" y="1.71" width="43.35" height="23.93" />
        <g>
          <g>
            <path class="cls-2"
              d="M31.65,20.28h5.44c4.38,0,7.93,3.56,7.93,7.93v3.62H23.72v-3.62c0-4.38,3.56-7.93,7.93-7.93Z" />
            <g>
              <g>
                <circle class="cls-7" cx="42.11" cy="13.18" r="2.1" />
                <path class="cls-4" d="M42.69,12.74c0,.63-1.17,.46-1.17,.46,0,0,.78,0,.78,.43" />
              </g>
              <g>
                <circle class="cls-7" cx="26.14" cy="13.18" r="2.1" />
                <path class="cls-3" d="M25.25,12.74c0,.63,1.17,.46,1.17,.46,0,0-.78,0-.78,.43" />
              </g>
              <g>
                <rect class="cls-7" x="26.97" y="7.11" width="14.55" height="13.17" rx="5.94" ry="5.94" />
                <g>
                  <polyline class="cls-9" points="32.82 16.72 34.31 16.72 35.68 16.72" />
                  <g>
                    <circle cx="32.1" cy="13.44" r=".71" />
                    <circle cx="36.39" cy="13.44" r=".71" />
                  </g>
                </g>
              </g>
              <path class="cls-5"
                d="M31.38,7.96s1.1,1.01,.92,2.42c0,0,1.35-1.76,1.01-2.85,0,0,.06,1.76,1.3,2.25,0,0-.06-2.25,1.18-2.25,0,0-.4,1.7,1.41,2.85,0,0-.14-1.72,.27-2.04,0,0,2.64,1.49,2.58,4.73l.96,.39,1.09-.75s.23-5.3-3.66-6.54c0,0,4.3-2.1-.52-.84,0,0-2.31-4.85-1.18-.55,0,0-2.97-.92-6.23,.03s-3.49-.86-3.49-.86c0,0,.12,2.28,1.64,2.59,0,0-3.08,2.8-2.25,5.65,.41,1.41,1.11,1.49,2.02,1.06,.66-.31,.7-3.35,1.67-3.52,1.35-.23,1.62-1.27,1.27-1.79Z" />
            </g>
          </g>
          <g>
            <g>
              <path class="cls-7"
                d="M40.66,21.02c2.19-1.92,4.7-4,6.3-6.37,.36-.65,.27-1.47,.31-2.34,0-1.36-.1-2.81-.24-4.19-.08-.82,.52-1.55,1.34-1.63,.77-.08,1.46,.45,1.61,1.19,.3,1.48,.54,2.93,.69,4.46,.16,1.46,.22,3.35-.65,4.72-1.73,2.95-3.91,5.18-6.19,7.6-2.34,2.25-5.61-1.29-3.17-3.44h0Z" />
              <path class="cls-2"
                d="M41.73,19.77h4.48v6.25h-4.48c-1.73,0-3.13-1.4-3.13-3.13h0c0-1.73,1.4-3.13,3.13-3.13Z"
                transform="translate(-3.77 36.69) rotate(-45)" />
            </g>
            <circle class="cls-7" cx="48.31" cy="6.67" r="2.25" />
          </g>
          <g>
            <path class="cls-7"
              d="M24.84,26.02c.24,2.9,.29,6.1,.11,8.96-.05,.8,.02,2.27-.09,3.3-.15,1.38-.37,2.83-.72,4.18-.21,.8,.26,1.61,1.06,1.82,.75,.2,1.51-.21,1.78-.92,.53-1.42,1.1-2.78,1.39-4.3s.35-1.89,.49-3.65c.27-3.41,.62-6.34,.66-9.68-.12-3.25-4.93-2.97-4.67,.28h0Z" />
            <path class="cls-2" d="M26.73,22.75h4.48v6.25h-4.48c-1.73,0-3.13-1.4-3.13-3.13h0c0-1.73,1.4-3.13,3.13-3.13Z"
              transform="translate(52.79 -1.98) rotate(89)" />
          </g>
        </g>
      </g>
    </g>
  </g>
</svg>