<?xml version="1.0" encoding="UTF-8"?>
<svg id="Capa_2" xmlns="http://www.w3.org/2000/svg"
  xmlns:xlink="http://www.w3.org/1999/xlink" viewBox="0 0 44.7 32.29">
  <defs>
    <clipPath id="clippath">
      <path class="cls-12" d="M0,0H44.7V30.45c0,1.02-.83,1.85-1.85,1.85H1.85c-1.02,0-1.85-.83-1.85-1.85V0H0Z" />
    </clipPath>
  </defs>
  <g id="Capa_1-2">
    <g class="cls-13">
      <g>
        <rect class="cls-1" x=".51" y="4.4" width="43.69" height="27.65" rx="1.93" ry="1.93" />
        <path class="cls-3" d="M2.44,4.4H42.26c1.07,0,1.93,.87,1.93,1.93v.95H.51v-.95c0-1.07,.87-1.93,1.93-1.93Z" />
      </g>
      <g>
        <g>
          <path class="cls-10"
            d="M17.67,23.12h5.44c4.38,0,7.93,3.56,7.93,7.93v3.62H9.74v-3.62c0-4.38,3.56-7.93,7.93-7.93Z" />
          <g>
            <g>
              <circle class="cls-2" cx="27.55" cy="17.03" r="2.1" />
              <path class="cls-7" d="M28.72,16.58c0,.63-1.17,.46-1.17,.46,0,0,.78,0,.78,.43" />
            </g>
            <g>
              <circle class="cls-2" cx="12.45" cy="17.03" r="2.1" />
              <path class="cls-6" d="M11.82,16.58c0,.63,1.17,.46,1.17,.46,0,0-.78,0-.78,.43" />
            </g>
            <g>
              <rect class="cls-9" x="13" y="9.95" width="14.55" height="13.17" rx="5.94" ry="5.94" />
              <g>
                <path class="cls-11" d="M18.84,19.57s.36,.87,1.5,.87c1.05,0,1.37-.87,1.37-.87" />
                <g>
                  <circle cx="18.13" cy="16.28" r=".71" />
                  <circle cx="22.41" cy="16.28" r=".71" />
                </g>
              </g>
            </g>
            <path class="cls-5"
              d="M17.41,10.81s1.1,1.01,.92,2.42c0,0,1.35-1.76,1.01-2.85,0,0,.06,1.76,1.3,2.25,0,0-.06-2.25,1.18-2.25,0,0-.4,1.7,1.41,2.85,0,0-.14-1.72,.27-2.04,0,0,2.64,1.49,2.58,4.73l.96,.39,1.09-.75s.23-5.3-3.66-6.54c0,0,4.3-2.1-.52-.84,0,0-2.31-4.85-1.18-.55,0,0-2.97-.92-6.23,.03s-3.49-.86-3.49-.86c0,0,.12,2.28,1.64,2.59,0,0-3.08,2.8-2.25,5.65,.41,1.41,1.11,1.49,2.02,1.06,.66-.31,.7-3.35,1.67-3.52,1.35-.23,1.62-1.27,1.27-1.79Z" />
          </g>
        </g>
        <g>
          <g>
            <path class="cls-8"
              d="M27.89,23.68c2.19-1.92,4.7-4,6.3-6.37,.36-.65,.27-1.47,.31-2.34,0-1.36-.1-2.81-.24-4.19-.08-.82,.52-1.55,1.34-1.63,.77-.08,1.46,.45,1.61,1.19,.3,1.48,.54,2.93,.69,4.46,.16,1.46,.22,3.35-.65,4.72-1.73,2.95-3.91,5.18-6.19,7.6-2.34,2.25-5.61-1.29-3.17-3.44h0Z" />
            <path class="cls-4" d="M28.96,22.44h4.48v6.25h-4.48c-1.73,0-3.13-1.4-3.13-3.13h0c0-1.73,1.4-3.13,3.13-3.13Z"
              transform="translate(-9.4 28.45) rotate(-45)" />
          </g>
          <circle class="cls-8" cx="35.54" cy="9.33" r="2.25" />
        </g>
        <g>
          <path class="cls-8"
            d="M13.94,27.98c-.12-3.25-4.93-2.97-4.67,.28,.2,2.32,.26,4.83,.18,7.21h4.01c.22-2.53,.44-4.89,.47-7.49Z" />
          <path class="cls-4" d="M11.16,24.98h4.48v6.25h-4.48c-1.73,0-3.13-1.4-3.13-3.13h0c0-1.73,1.4-3.13,3.13-3.13Z"
            transform="translate(39.73 15.78) rotate(89)" />
        </g>
      </g>
      <path
        d="M42.26,32.29H2.44c-1.2,0-2.18-.98-2.18-2.18V6.33c0-1.2,.98-2.18,2.18-2.18H42.26c1.2,0,2.18,.98,2.18,2.18V30.11c0,1.2-.98,2.18-2.18,2.18ZM2.44,4.65c-.93,0-1.68,.75-1.68,1.68V30.11c0,.93,.75,1.68,1.68,1.68H42.26c.93,0,1.68-.75,1.68-1.68V6.33c0-.93-.75-1.68-1.68-1.68H2.44Z" />
    </g>
  </g>
</svg>