<?xml version="1.0" encoding="UTF-8"?><svg id="Capa_2" xmlns="http://www.w3.org/2000/svg" viewBox="0 0 19.47 19.47"><defs><style>.cls-1{fill:#8f71fc;}.cls-2{fill:#734aff;}.cls-3{fill:#231f20;}</style></defs><g id="Capa_1-2"><g><circle class="cls-2" cx="9.74" cy="9.74" r="9.74"/><g><g><path class="cls-1" d="M5.56,12.98c-.87,0-1.57-.7-1.57-1.57V6.49h6.65c.87,0,1.57,.7,1.57,1.57v4.92H5.56Z"/><path class="cls-3" d="M10.63,6.99c.59,0,1.07,.48,1.07,1.07v4.42H5.56c-.59,0-1.07-.48-1.07-1.07V6.99h6.15m0-1H3.49v5.42c0,1.14,.93,2.07,2.07,2.07h7.15v-5.42c0-1.14-.93-2.07-2.07-2.07h0Z"/></g><g><path class="cls-1" d="M14.99,12.64c-.08,0-.15-.02-.22-.05l-2.27-1.14c-.17-.08-.28-.26-.28-.45v-2.52c0-.19,.11-.36,.28-.45l2.27-1.14c.07-.04,.15-.05,.22-.05,.09,0,.18,.02,.26,.07,.15,.09,.24,.25,.24,.43v4.79c0,.17-.09,.33-.24,.43-.08,.05-.17,.07-.26,.07Z"/><path class="cls-3" d="M14.99,7.35v4.79l-2.27-1.14v-2.52l2.27-1.14m0-1c-.15,0-.31,.04-.45,.11l-2.27,1.14c-.34,.17-.55,.52-.55,.89v2.52c0,.38,.21,.72,.55,.89l2.27,1.14c.14,.07,.29,.11,.45,.11,.18,0,.36-.05,.53-.15,.29-.18,.47-.5,.47-.85V7.35c0-.35-.18-.67-.47-.85-.16-.1-.34-.15-.53-.15h0Z"/></g></g></g></g></svg>